<svg xmlns="http://www.w3.org/2000/svg" xmlns:xlink="http://www.w3.org/1999/xlink" viewBox="0 0 746.62 746.62"><defs><style>.cls-1{fill:none;}.cls-2{fill:#333;}.cls-3{fill:#1a1a1a;}.cls-4{fill:#0071bc;}.cls-5{fill:#efecec;}.cls-6{fill:url(#linear-gradient);}.cls-7{fill:#363434;}</style><linearGradient id="linear-gradient" x1="279.81" y1="590.04" x2="476.27" y2="498.46" gradientUnits="userSpaceOnUse"><stop offset="0" stop-color="#243949"/><stop offset="1" stop-color="#517fa4"/></linearGradient></defs><title>cobalt</title><g id="Layer_2" data-name="Layer 2"><g id="Layer_2-2" data-name="Layer 2"><rect class="cls-1" width="746.62" height="746.62"/><path class="cls-2" d="M696.34,308.76v18.16c0,6.93-5.26,13.86-15.75,19.12L491.25,440.69c-21,10.51-55.41,10.51-76.42,0L66.05,266.31c-10.51-5.25-15.77-12.18-15.77-19.11V229c0-6.93,5.26-13.85,15.77-19.11l189.32-94.66c21-10.51,55.42-10.51,76.43,0L680.59,289.65C691.08,294.91,696.34,301.83,696.34,308.76Z"/><path class="cls-2" d="M696.34,308.76a15.63,15.63,0,0,1-3.11,9.08c-2.59,3.67-6.8,7.11-12.65,10L491.26,422.53c-21,10.51-55.42,10.51-76.43,0L66.05,248.15c-5.84-2.93-10.06-6.35-12.66-10A15.65,15.65,0,0,1,50.28,229c0-6.93,5.26-13.85,15.77-19.11l189.32-94.66c21-10.51,55.42-10.51,76.43,0L680.58,289.65C691.08,294.91,696.34,301.83,696.34,308.76Z"/><path class="cls-3" d="M570.54,351c0,4.24-3.21,8.48-9.64,11.69s-14.88,4.81-23.36,4.81-16.93-1.6-23.35-4.81-9.64-7.45-9.64-11.69,3.22-8.46,9.64-11.67,14.89-4.81,23.35-4.81,16.94,1.61,23.36,4.81S570.54,346.75,570.54,351Z"/><path class="cls-4" d="M696.34,308.76v18.16c0,6.94-5.26,13.86-15.76,19.11L491.26,440.69c-21,10.51-55.42,10.51-76.43,0L66.05,266.31c-10.51-5.25-15.77-12.18-15.77-19.11V229a15.65,15.65,0,0,0,3.11,9.08c2.6,3.68,6.82,7.1,12.66,10L414.83,422.53c21,10.51,55.41,10.51,76.43,0l189.32-94.66c5.85-2.92,10.06-6.36,12.65-10A15.63,15.63,0,0,0,696.34,308.76Z"/><polygon class="cls-2" points="574.45 386.67 574.45 394.15 597.38 382.68 597.38 375.2 574.45 386.67"/><rect class="cls-1" x="64.81" y="449.35" width="617" height="189.88"/><rect class="cls-5" x="284.95" y="497.42" width="185.8" height="94.05"/><path class="cls-6" d="M353.44,536.74c-7.43,0-10.27,5.94-10.27,20.42,0,14.73,2.84,20.77,10.52,20.77,7.41,0,10.38-6,10.38-20.52S361.1,536.74,353.44,536.74Zm0,0c-7.43,0-10.27,5.94-10.27,20.42,0,14.73,2.84,20.77,10.52,20.77,7.41,0,10.38-6,10.38-20.52S361.1,536.74,353.44,536.74Zm0,0c-7.43,0-10.27,5.94-10.27,20.42,0,14.73,2.84,20.77,10.52,20.77,7.41,0,10.38-6,10.38-20.52S361.1,536.74,353.44,536.74Zm0,0c-7.43,0-10.27,5.94-10.27,20.42,0,14.73,2.84,20.77,10.52,20.77,7.41,0,10.38-6,10.38-20.52S361.1,536.74,353.44,536.74Zm0,0c-7.43,0-10.27,5.94-10.27,20.42,0,14.73,2.84,20.77,10.52,20.77,7.41,0,10.38-6,10.38-20.52S361.1,536.74,353.44,536.74Zm0,0c-7.43,0-10.27,5.94-10.27,20.42,0,14.73,2.84,20.77,10.52,20.77,7.41,0,10.38-6,10.38-20.52S361.1,536.74,353.44,536.74ZM282,494.54V594H473.86v-99.5Zm27.49,93.66c-14.48,0-21.89-10.5-21.89-30.92,0-20.9,7.28-30.92,22.51-30.92A27.71,27.71,0,0,1,326,531.05L322.14,540a19,19,0,0,0-10.63-3.22c-8.78,0-12,5.46-12,20.17s3.47,21,11.88,21a19.94,19.94,0,0,0,11.86-4.08l3.35,9A29.37,29.37,0,0,1,309.53,588.2Zm43.91,0q-22.28,0-22.26-30.79c0-20.9,7.41-31,22.51-31s22.38,10.15,22.38,30.8C376.07,578.06,368.52,588.2,353.44,588.2ZM427.89,587H416.14V544.92c0-6.07-2.09-8.29-6.3-8.29-3.85,0-8.18,2.72-11.13,5.7V587H387V527.6h9.65l.75,6.67h.11c4-3.7,9.66-7.91,17.07-7.91,8.66,0,13.36,5.19,13.36,15Zm40.34,0H434.32V575.21h33.91ZM353.44,536.74c-7.43,0-10.27,5.94-10.27,20.42,0,14.73,2.84,20.77,10.52,20.77,7.41,0,10.38-6,10.38-20.52S361.1,536.74,353.44,536.74Zm0,0c-7.43,0-10.27,5.94-10.27,20.42,0,14.73,2.84,20.77,10.52,20.77,7.41,0,10.38-6,10.38-20.52S361.1,536.74,353.44,536.74Zm0,0c-7.43,0-10.27,5.94-10.27,20.42,0,14.73,2.84,20.77,10.52,20.77,7.41,0,10.38-6,10.38-20.52S361.1,536.74,353.44,536.74Zm0,0c-7.43,0-10.27,5.94-10.27,20.42,0,14.73,2.84,20.77,10.52,20.77,7.41,0,10.38-6,10.38-20.52S361.1,536.74,353.44,536.74Zm0,0c-7.43,0-10.27,5.94-10.27,20.42,0,14.73,2.84,20.77,10.52,20.77,7.41,0,10.38-6,10.38-20.52S361.1,536.74,353.44,536.74Z"/><path class="cls-7" d="M99.78,500.38v36.86H77V500.38H65V587H77V547.76H99.78V587h12V500.38Z"/><path class="cls-7" d="M126.35,527.6V587h11.76V527.6Zm5.81-22.76a7.13,7.13,0,0,0-7.53,7.55c0,4.45,3.08,7.4,7.53,7.4s7.68-2.95,7.68-7.4S136.75,504.84,132.16,504.84Z"/><path class="cls-7" d="M191.41,553.2c0-16.46-5.06-26.84-20.15-26.84C156.41,526.36,149,537,149,557.28c0,20.65,7.05,30.92,22,30.92,6.68,0,13.73-2,18.56-5.31l-3.22-9.29a23.74,23.74,0,0,1-13.12,4.46c-8.28,0-12-5.07-12.49-17.07h30.32Q191.4,556.91,191.41,553.2ZM180.53,553H160.62c.62-11.5,3.82-16.69,10.87-16.69C178.92,536.26,180.91,542.93,180.53,553Z"/><path class="cls-7" d="M227,526.74c-5.94,0-10.88,3.45-14.73,7.53h-.12l-.61-6.67h-9.65V587h11.74V543.43a17,17,0,0,1,12.39-5.81,14.52,14.52,0,0,1,5.56,1.11L233.84,528A18.43,18.43,0,0,0,227,526.74Z"/><path class="cls-7" d="M258.69,526.36a39,39,0,0,0-19.41,5.44l3.47,9.27a25.81,25.81,0,0,1,14-4.33c5.95,0,8.9,2.84,8.9,9.66v4.21H260.8c-15.33,0-24.24,7.18-24.24,20.65,0,10,5.19,16.82,14.6,16.82,6.67,0,11.74-3.1,15.46-7.66H267l.6,6.55h9.77V545C277.37,532.91,270.82,526.36,258.69,526.36Zm6.93,46.76c-2.95,3.45-6.8,5.44-10.51,5.44-4.58,0-7.05-3.1-7.05-8.54,0-7.3,4.33-11.25,13.12-11.25h4.44Z"/><path class="cls-7" d="M506.41,539.45c0-20.72,4.72-28.72,16.24-28.72,4.4,0,8.56,1.28,11.28,3.6l-2.88,6.08a12.52,12.52,0,0,0-7.68-2.72c-6.88,0-9,5.36-9,21.6s2.24,21.76,9.12,21.76a14.62,14.62,0,0,0,9-3.2l2.4,6.24A19.25,19.25,0,0,1,522.57,568C511,568,506.41,560.17,506.41,539.45Z"/><path class="cls-7" d="M538.33,548.25c0-13.52,4.8-20.08,14.56-20.08s14.48,6.56,14.48,19.92c0,13.52-4.88,20.08-14.64,20.08Q538.33,568.17,538.33,548.25Zm21.28,0c0-9.44-1.92-13.36-6.88-13.36-4.8,0-6.64,3.84-6.64,13.2,0,9.52,1.84,13.44,6.8,13.44C557.69,561.53,559.61,557.61,559.61,548.25Z"/><path class="cls-7" d="M603.21,546.41c0,13.44-4.08,21.76-12.32,21.76a12.12,12.12,0,0,1-9.68-5l-.24.08a14.79,14.79,0,0,1-.08,1.84l-.24,2.24h-6.24v-56H582v21.2a14.67,14.67,0,0,1,10.08-4.4C600.17,528.17,603.21,535,603.21,546.41Zm-7.76-.56c0-8-1.92-10.8-5.92-10.8-2.72,0-5.52,1.68-7.6,3.6v19.2c2.08,2.08,4.48,3.52,6.88,3.52C593.69,561.37,595.45,556.25,595.45,545.85Z"/><path class="cls-7" d="M634.57,540.25v27.12h-6.32l-.4-4.24h-.24a12.5,12.5,0,0,1-10,5c-6.08,0-9.44-4.4-9.44-10.88,0-8.72,5.76-13.36,15.68-13.36H627v-2.72c0-4.4-1.92-6.24-5.76-6.24a16.72,16.72,0,0,0-9,2.8l-2.24-6a25.25,25.25,0,0,1,12.56-3.52C630.33,528.17,634.57,532.41,634.57,540.25ZM627,558.41v-9.28h-2.88c-5.68,0-8.48,2.56-8.48,7.28,0,3.52,1.6,5.52,4.56,5.52A9.23,9.23,0,0,0,627,558.41Z"/><path class="cls-7" d="M642.65,556.33v-45h7.52v44c0,4.32,1,6.08,3.6,6.08a7.62,7.62,0,0,0,3-.56l.48,6.08a15.52,15.52,0,0,1-5.84,1.2C644.81,568.17,642.65,564,642.65,556.33Z"/><path class="cls-7" d="M681.61,566.17a17.58,17.58,0,0,1-8.16,2c-7,0-10.08-4.16-10.08-13.6v-19.2h-4.88V529h4.88V517H671v12h9.6v6.4H671v17.68c0,6.32,1.12,8.48,4.4,8.48a9,9,0,0,0,4.48-1.2Z"/></g></g></svg>