<svg xmlns="http://www.w3.org/2000/svg" viewBox="0 0 746.62 746.62"><defs><style>.cls-1{fill:#603813;}.cls-2{fill:none;}.cls-3{fill:#a67c52;}.cls-4{fill:#8c6239;}.cls-5{fill:#c69c6d;}</style></defs><title>Asset 7</title><g id="Layer_2" data-name="Layer 2"><g id="Layer_2-2" data-name="Layer 2"><polygon class="cls-1" points="689.22 365.92 689.22 584.9 579.72 639.66 524.97 667.03 360.73 584.9 276.4 627.07 166.9 572.33 166.9 572.32 112.15 544.95 57.4 517.57 57.4 189.09 276.4 79.59 331.14 106.97 385.89 134.34 495.39 189.09 495.39 298.59 524.97 283.79 689.22 365.92"/><polygon class="cls-2" points="166.9 572.32 166.9 572.33 112.15 544.95 166.9 572.32"/><polygon class="cls-3" points="112.15 216.47 112.15 544.95 57.4 517.57 57.4 189.09 112.15 216.47"/><polygon class="cls-3" points="276.4 298.59 276.4 627.07 166.9 572.33 166.9 243.84 276.4 298.59"/><polygon class="cls-4" points="495.39 189.09 495.39 298.59 470.22 311.16 415.48 338.54 360.73 365.92 360.73 584.9 276.4 627.07 276.4 298.59 495.39 189.09"/><polygon class="cls-5" points="331.14 106.97 112.15 216.46 112.15 216.47 57.4 189.09 276.4 79.59 331.14 106.97"/><polygon class="cls-5" points="495.39 189.09 276.4 298.59 166.9 243.84 385.89 134.34 495.39 189.09"/><polygon class="cls-3" points="385.89 134.34 166.9 243.84 112.15 216.47 112.15 216.46 331.14 106.97 385.89 134.34"/><polygon class="cls-4" points="166.9 243.84 166.9 572.32 112.15 544.95 112.15 216.47 166.9 243.84"/><polygon class="cls-2" points="166.9 572.32 166.9 572.33 112.15 544.95 166.9 572.32"/><polygon class="cls-4" points="579.72 420.67 579.72 639.66 524.97 667.03 524.97 448.03 579.72 420.67"/><polygon class="cls-4" points="689.22 365.92 689.22 584.9 634.47 612.28 634.47 393.29 689.22 365.92"/><polygon class="cls-3" points="524.97 448.03 524.97 667.03 360.73 584.9 360.73 365.92 495.39 433.25 524.97 448.03"/><polygon class="cls-5" points="689.22 365.92 634.47 393.29 495.39 323.75 470.22 311.16 495.39 298.59 524.97 283.79 689.22 365.92"/><polygon class="cls-5" points="579.72 420.66 579.72 420.67 524.97 448.03 495.39 433.25 360.73 365.92 415.48 338.54 579.72 420.66"/><polygon class="cls-1" points="634.47 393.29 634.47 612.28 579.72 639.66 579.72 420.66 634.47 393.29"/><polygon class="cls-3" points="634.47 393.29 579.72 420.66 415.48 338.54 470.22 311.16 495.39 323.75 634.47 393.29"/><rect class="cls-2" width="746.62" height="746.62"/></g></g></svg>