<svg xmlns="http://www.w3.org/2000/svg" xmlns:xlink="http://www.w3.org/1999/xlink" viewBox="0 0 437.06 130.31"><defs><style>.cls-1{fill:none;}.cls-2{fill:#efecec;}.cls-3{fill:url(#linear-gradient);}.cls-4{fill:#363434;}</style><linearGradient id="linear-gradient" x1="228.91" y1="110.9" x2="425.37" y2="19.32" gradientUnits="userSpaceOnUse"><stop offset="0" stop-color="#243949"/><stop offset="1" stop-color="#517fa4"/></linearGradient></defs><title>Asset 6</title><g id="Layer_2" data-name="Layer 2"><g id="Layer_2-2" data-name="Layer 2"><rect class="cls-1" width="437.06" height="130.31"/><rect class="cls-2" x="234.04" y="18.28" width="185.8" height="94.05"/><path class="cls-3" d="M302.53,57.6c-7.42,0-10.27,5.94-10.27,20.42,0,14.73,2.85,20.77,10.53,20.77,7.4,0,10.37-6,10.37-20.52S310.19,57.6,302.53,57.6Zm0,0c-7.42,0-10.27,5.94-10.27,20.42,0,14.73,2.85,20.77,10.53,20.77,7.4,0,10.37-6,10.37-20.52S310.19,57.6,302.53,57.6Zm0,0c-7.42,0-10.27,5.94-10.27,20.42,0,14.73,2.85,20.77,10.53,20.77,7.4,0,10.37-6,10.37-20.52S310.19,57.6,302.53,57.6Zm0,0c-7.42,0-10.27,5.94-10.27,20.42,0,14.73,2.85,20.77,10.53,20.77,7.4,0,10.37-6,10.37-20.52S310.19,57.6,302.53,57.6Zm0,0c-7.42,0-10.27,5.94-10.27,20.42,0,14.73,2.85,20.77,10.53,20.77,7.4,0,10.37-6,10.37-20.52S310.19,57.6,302.53,57.6Zm0,0c-7.42,0-10.27,5.94-10.27,20.42,0,14.73,2.85,20.77,10.53,20.77,7.4,0,10.37-6,10.37-20.52S310.19,57.6,302.53,57.6Zm-71.4-42.19V114.9H423V15.41Zm27.49,93.66c-14.47,0-21.88-10.51-21.88-30.92,0-20.9,7.28-30.92,22.51-30.92a27.72,27.72,0,0,1,15.84,4.68l-3.85,8.91a19,19,0,0,0-10.63-3.22c-8.79,0-12,5.46-12,20.17s3.47,21,11.88,21a20,20,0,0,0,11.87-4.08l3.34,9A29.35,29.35,0,0,1,258.62,109.07Zm43.91,0q-22.27,0-22.26-30.8c0-20.9,7.41-31,22.52-31,14.95,0,22.38,10.14,22.38,30.79C325.17,98.92,317.62,109.07,302.53,109.07ZM377,107.83H365.23v-42c0-6.07-2.09-8.28-6.29-8.28-3.85,0-8.18,2.72-11.13,5.69v44.64H336.05V48.46h9.64l.76,6.67h.1c4-3.7,9.67-7.9,17.07-7.9,8.66,0,13.37,5.18,13.37,15Zm40.33,0H383.41V96.07h33.91ZM302.53,57.6c-7.42,0-10.27,5.94-10.27,20.42,0,14.73,2.85,20.77,10.53,20.77,7.4,0,10.37-6,10.37-20.52S310.19,57.6,302.53,57.6Zm0,0c-7.42,0-10.27,5.94-10.27,20.42,0,14.73,2.85,20.77,10.53,20.77,7.4,0,10.37-6,10.37-20.52S310.19,57.6,302.53,57.6Zm0,0c-7.42,0-10.27,5.94-10.27,20.42,0,14.73,2.85,20.77,10.53,20.77,7.4,0,10.37-6,10.37-20.52S310.19,57.6,302.53,57.6Zm0,0c-7.42,0-10.27,5.94-10.27,20.42,0,14.73,2.85,20.77,10.53,20.77,7.4,0,10.37-6,10.37-20.52S310.19,57.6,302.53,57.6Zm0,0c-7.42,0-10.27,5.94-10.27,20.42,0,14.73,2.85,20.77,10.53,20.77,7.4,0,10.37-6,10.37-20.52S310.19,57.6,302.53,57.6Z"/><path class="cls-4" d="M48.88,21.24V58.1H26.11V21.24h-12v86.59h12V68.63H48.88v39.2h12V21.24Z"/><path class="cls-4" d="M75.44,48.46v59.37H87.2V48.46ZM81.26,25.7a7.13,7.13,0,0,0-7.53,7.55c0,4.46,3.07,7.41,7.53,7.41s7.68-2.95,7.68-7.41S85.84,25.7,81.26,25.7Z"/><path class="cls-4" d="M140.51,74.07c0-16.47-5.07-26.84-20.15-26.84-14.85,0-22.28,10.62-22.28,30.92,0,20.64,7,30.92,22,30.92,6.67,0,13.72-2,18.56-5.32l-3.23-9.29a23.71,23.71,0,0,1-13.11,4.46c-8.29,0-12-5.06-12.49-17.07h30.31C140.38,79.13,140.51,76.53,140.51,74.07Zm-10.88-.25H109.71c.63-11.51,3.83-16.7,10.88-16.7C128,57.12,130,63.79,129.63,73.82Z"/><path class="cls-4" d="M176.13,47.6c-5.94,0-10.88,3.45-14.72,7.53h-.13l-.61-6.67H151v59.37h11.74V64.3a16.9,16.9,0,0,1,12.38-5.82,14.67,14.67,0,0,1,5.56,1.11l2.22-10.75A18.18,18.18,0,0,0,176.13,47.6Z"/><path class="cls-4" d="M207.79,47.23a39,39,0,0,0-19.42,5.43l3.47,9.27a25.85,25.85,0,0,1,14-4.33c5.94,0,8.89,2.85,8.89,9.67v4.2H209.9c-15.34,0-24.25,7.18-24.25,20.65,0,10,5.19,16.82,14.6,16.82,6.68,0,11.74-3.1,15.46-7.66h.38l.61,6.55h9.77V65.91C226.47,53.77,219.92,47.23,207.79,47.23ZM214.71,94c-3,3.45-6.8,5.44-10.5,5.44-4.58,0-7.05-3.09-7.05-8.53,0-7.3,4.33-11.26,13.12-11.26h4.43Z"/></g></g></svg>