<svg xmlns="http://www.w3.org/2000/svg" viewBox="0 0 746.62 746.62"><defs><style>.cls-1{fill:#f7931e;}.cls-2{fill:#fbb03b;}.cls-3{fill:none;}</style></defs><title>Asset 8</title><g id="Layer_2" data-name="Layer 2"><g id="Layer_2-2" data-name="Layer 2"><path class="cls-1" d="M646.27,385.9A35.87,35.87,0,0,1,641,404.2c0,.37,0,.73,0,1.1v33.07c0,.37,0,.74,0,1.1a35.91,35.91,0,0,1,5.27,18.31v33.07a35.87,35.87,0,0,1-5.27,18.3c0,.37,0,.73,0,1.1v33.07c0,16.47-12.49,32.89-37.48,45.41s-57.89,18.73-90.78,18.73-65.84-6.25-90.81-18.73-37.45-28.94-37.45-45.41V510.25c0-.66,0-1.31.07-2a200.93,200.93,0,0,1-22.45,5.25v23a35.82,35.82,0,0,1-5.27,18.3c0,.37,0,.75,0,1.11V589c0,16.47-12.47,32.89-37.48,45.42S261.5,653.1,228.61,653.1s-65.84-6.25-90.81-18.72-37.45-29-37.45-45.42V555.9a35.88,35.88,0,0,1,5.27-18.31c0-.37,0-.74,0-1.1V503.43c0-16.47,12.49-32.93,37.45-45.42,13.88-6.94,30.23-11.95,47.67-15V420A35.85,35.85,0,0,1,196,401.72c0-.37,0-.74,0-1.1V367.56c0-.37,0-.74,0-1.12a35.74,35.74,0,0,1-5.28-18.3V315.08A35.85,35.85,0,0,1,196,296.77c0-.37,0-.74,0-1.1V262.61c0-.37,0-.74,0-1.12a35.74,35.74,0,0,1-5.28-18.3V210.13A35.85,35.85,0,0,1,196,191.82c0-.37,0-.73,0-1.1V157.66c0-16.46,12.49-32.93,37.46-45.42s57.89-18.72,90.8-18.72,65.82,6.25,90.78,18.72,37.48,29,37.48,45.42v33.06a35.78,35.78,0,0,1-5.27,18.3c0,.38,0,.75,0,1.11v33.06c0,.37,0,.74,0,1.1a35.84,35.84,0,0,1,5.27,18.32v33.06c0,.65,0,1.31-.06,2,20.11-6,42.84-8.94,65.58-8.94,32.89,0,65.8,6.25,90.78,18.72s37.48,28.95,37.48,45.41Z"/><path class="cls-1" d="M447.25,420V453.1c0,16.46-12.48,32.88-37.49,45.4S351.88,517.23,319,517.23,253.14,511,228.18,498.5s-37.45-28.94-37.45-45.4V420c0-16.46,12.48-32.93,37.45-45.41S286.07,355.9,319,355.9s65.81,6.24,90.77,18.72S447.25,403.57,447.25,420Z"/><path class="cls-1" d="M447.25,420V453.1c0,16.46-12.48,32.88-37.49,45.4S351.88,517.23,319,517.23,253.14,511,228.18,498.5s-37.45-28.94-37.45-45.4V420c0-16.46,12.48-32.93,37.45-45.41S286.07,355.9,319,355.9s65.81,6.24,90.77,18.72S447.25,403.57,447.25,420Z"/><path class="cls-2" d="M447.25,420a34.74,34.74,0,0,1-4.31,16.53c-5.54,10.59-16.6,20.59-33.18,28.87-25,12.49-57.88,18.73-90.77,18.73s-65.85-6.24-90.81-18.73c-16.54-8.28-27.6-18.28-33.18-28.87A35.15,35.15,0,0,1,190.73,420c0-16.46,12.48-32.93,37.45-45.41S286.07,355.9,319,355.9s65.81,6.24,90.77,18.72S447.25,403.57,447.25,420Z"/><path class="cls-1" d="M447.25,420V453.1c0,16.46-12.48,32.88-37.49,45.4S351.88,517.23,319,517.23,253.14,511,228.18,498.5s-37.45-28.94-37.45-45.4V420A35.15,35.15,0,0,0,195,436.56c5.58,10.59,16.64,20.59,33.18,28.87,25,12.49,57.89,18.73,90.81,18.73s65.81-6.24,90.77-18.73c16.58-8.28,27.64-18.28,33.18-28.87A34.74,34.74,0,0,0,447.25,420Z"/><path class="cls-1" d="M452.5,367.55v33.07C452.5,417.08,440,433.51,415,446s-57.89,18.72-90.77,18.72-65.85-6.24-90.82-18.72S196,417.08,196,400.62V367.55c0-16.46,12.48-32.92,37.44-45.4s57.89-18.73,90.82-18.73,65.81,6.24,90.77,18.73S452.5,351.09,452.5,367.55Z"/><path class="cls-1" d="M452.5,367.55v33.07C452.5,417.08,440,433.51,415,446s-57.89,18.72-90.77,18.72-65.85-6.24-90.82-18.72S196,417.08,196,400.62V367.55c0-16.46,12.48-32.92,37.44-45.4s57.89-18.73,90.82-18.73,65.81,6.24,90.77,18.73S452.5,351.09,452.5,367.55Z"/><path class="cls-2" d="M452.5,367.55a34.86,34.86,0,0,1-4.31,16.54C442.64,394.67,431.58,404.67,415,413c-25,12.48-57.89,18.72-90.77,18.72s-65.85-6.24-90.82-18.72c-16.53-8.29-27.59-18.29-33.17-28.87A35.16,35.16,0,0,1,196,367.55c0-16.46,12.48-32.92,37.44-45.4s57.89-18.73,90.82-18.73,65.81,6.24,90.77,18.73S452.5,351.09,452.5,367.55Z"/><path class="cls-1" d="M452.5,367.55v33.07C452.5,417.08,440,433.51,415,446s-57.89,18.72-90.77,18.72-65.85-6.24-90.82-18.72S196,417.08,196,400.62V367.55a35.16,35.16,0,0,0,4.27,16.54c5.58,10.58,16.64,20.58,33.17,28.87,25,12.48,57.89,18.72,90.82,18.72S390.05,425.44,415,413c16.57-8.29,27.63-18.29,33.18-28.87A34.86,34.86,0,0,0,452.5,367.55Z"/><path class="cls-1" d="M447.25,315.08v33.07c0,16.46-12.48,32.88-37.49,45.4S351.88,412.28,319,412.28s-65.85-6.24-90.81-18.73-37.45-28.94-37.45-45.4V315.08c0-16.46,12.48-32.92,37.45-45.41S286.07,251,319,251s65.81,6.24,90.77,18.72S447.25,298.62,447.25,315.08Z"/><path class="cls-1" d="M447.25,315.08v33.07c0,16.46-12.48,32.88-37.49,45.4S351.88,412.28,319,412.28s-65.85-6.24-90.81-18.73-37.45-28.94-37.45-45.4V315.08c0-16.46,12.48-32.92,37.45-45.41S286.07,251,319,251s65.81,6.24,90.77,18.72S447.25,298.62,447.25,315.08Z"/><path class="cls-2" d="M447.25,315.08a34.74,34.74,0,0,1-4.31,16.53c-5.54,10.59-16.6,20.59-33.18,28.87-25,12.49-57.88,18.73-90.77,18.73s-65.85-6.24-90.81-18.73c-16.54-8.28-27.6-18.28-33.18-28.87a35.15,35.15,0,0,1-4.27-16.53c0-16.46,12.48-32.92,37.45-45.41S286.07,251,319,251s65.81,6.24,90.77,18.72S447.25,298.62,447.25,315.08Z"/><path class="cls-1" d="M447.25,315.08v33.07c0,16.46-12.48,32.88-37.49,45.4S351.88,412.28,319,412.28s-65.85-6.24-90.81-18.73-37.45-28.94-37.45-45.4V315.08A35.15,35.15,0,0,0,195,331.61c5.58,10.59,16.64,20.59,33.18,28.87,25,12.49,57.89,18.73,90.81,18.73s65.81-6.24,90.77-18.73c16.58-8.28,27.64-18.28,33.18-28.87A34.74,34.74,0,0,0,447.25,315.08Z"/><path class="cls-1" d="M452.5,262.6v33.07c0,16.46-12.49,32.89-37.49,45.41s-57.89,18.72-90.77,18.72-65.85-6.24-90.82-18.72S196,312.13,196,295.67V262.6c0-16.46,12.48-32.92,37.44-45.4s57.89-18.73,90.82-18.73,65.81,6.24,90.77,18.73S452.5,246.14,452.5,262.6Z"/><path class="cls-1" d="M452.5,262.6v33.07c0,16.46-12.49,32.89-37.49,45.41s-57.89,18.72-90.77,18.72-65.85-6.24-90.82-18.72S196,312.13,196,295.67V262.6c0-16.46,12.48-32.92,37.44-45.4s57.89-18.73,90.82-18.73,65.81,6.24,90.77,18.73S452.5,246.14,452.5,262.6Z"/><path class="cls-2" d="M452.5,262.6a34.86,34.86,0,0,1-4.31,16.54C442.64,289.72,431.58,299.72,415,308c-25,12.48-57.89,18.72-90.77,18.72s-65.85-6.24-90.82-18.72c-16.53-8.29-27.59-18.29-33.17-28.87A35.16,35.16,0,0,1,196,262.6c0-16.46,12.48-32.92,37.44-45.4s57.89-18.73,90.82-18.73,65.81,6.24,90.77,18.73S452.5,246.14,452.5,262.6Z"/><path class="cls-1" d="M452.5,262.6v33.07c0,16.46-12.49,32.89-37.49,45.41s-57.89,18.72-90.77,18.72-65.85-6.24-90.82-18.72S196,312.13,196,295.67V262.6a35.16,35.16,0,0,0,4.27,16.54c5.58,10.58,16.64,20.58,33.17,28.87,25,12.48,57.89,18.72,90.82,18.72S390.05,320.49,415,308c16.57-8.29,27.63-18.29,33.18-28.87A34.86,34.86,0,0,0,452.5,262.6Z"/><path class="cls-1" d="M447.25,210.13V243.2c0,16.46-12.48,32.88-37.49,45.4S351.88,307.33,319,307.33s-65.85-6.24-90.81-18.73-37.45-28.94-37.45-45.4V210.13c0-16.46,12.48-32.92,37.45-45.41S286.07,146,319,146s65.81,6.24,90.77,18.72S447.25,193.67,447.25,210.13Z"/><path class="cls-1" d="M447.25,210.13V243.2c0,16.46-12.48,32.88-37.49,45.4S351.88,307.33,319,307.33s-65.85-6.24-90.81-18.73-37.45-28.94-37.45-45.4V210.13c0-16.46,12.48-32.92,37.45-45.41S286.07,146,319,146s65.81,6.24,90.77,18.72S447.25,193.67,447.25,210.13Z"/><path class="cls-2" d="M447.25,210.13a34.74,34.74,0,0,1-4.31,16.53c-5.54,10.59-16.6,20.59-33.18,28.87-25,12.49-57.88,18.73-90.77,18.73s-65.85-6.24-90.81-18.73c-16.54-8.28-27.6-18.28-33.18-28.87a35.15,35.15,0,0,1-4.27-16.53c0-16.46,12.48-32.92,37.45-45.41S286.07,146,319,146s65.81,6.24,90.77,18.72S447.25,193.67,447.25,210.13Z"/><path class="cls-1" d="M447.25,210.13V243.2c0,16.46-12.48,32.88-37.49,45.4S351.88,307.33,319,307.33s-65.85-6.24-90.81-18.73-37.45-28.94-37.45-45.4V210.13A35.15,35.15,0,0,0,195,226.66c5.58,10.59,16.64,20.59,33.18,28.87,25,12.49,57.89,18.73,90.81,18.73s65.81-6.24,90.77-18.73c16.58-8.28,27.64-18.28,33.18-28.87A34.74,34.74,0,0,0,447.25,210.13Z"/><path class="cls-1" d="M452.5,157.65v33.07c0,16.46-12.49,32.89-37.49,45.41s-57.89,18.72-90.77,18.72-65.85-6.24-90.82-18.72S196,207.18,196,190.72V157.65c0-16.46,12.48-32.92,37.44-45.4s57.89-18.73,90.82-18.73,65.81,6.25,90.77,18.73S452.5,141.19,452.5,157.65Z"/><path class="cls-1" d="M452.5,157.65v33.07c0,16.46-12.49,32.89-37.49,45.41s-57.89,18.72-90.77,18.72-65.85-6.24-90.82-18.72S196,207.18,196,190.72V157.65c0-16.46,12.48-32.92,37.44-45.4s57.89-18.73,90.82-18.73,65.81,6.25,90.77,18.73S452.5,141.19,452.5,157.65Z"/><path class="cls-2" d="M452.5,157.65a34.86,34.86,0,0,1-4.31,16.54c-5.55,10.58-16.61,20.58-33.18,28.87-25,12.48-57.89,18.72-90.77,18.72s-65.85-6.24-90.82-18.72c-16.53-8.29-27.59-18.29-33.17-28.87A35.16,35.16,0,0,1,196,157.65c0-16.46,12.48-32.92,37.44-45.4s57.89-18.73,90.82-18.73,65.81,6.25,90.77,18.73S452.5,141.19,452.5,157.65Z"/><path class="cls-1" d="M452.5,157.65v33.07c0,16.46-12.49,32.89-37.49,45.41s-57.89,18.72-90.77,18.72-65.85-6.24-90.82-18.72S196,207.18,196,190.72V157.65a35.16,35.16,0,0,0,4.27,16.54c5.58,10.58,16.64,20.58,33.17,28.87,25,12.48,57.89,18.72,90.82,18.72s65.81-6.24,90.77-18.72c16.57-8.29,27.63-18.29,33.18-28.87A34.86,34.86,0,0,0,452.5,157.65Z"/><path class="cls-1" d="M641,510.25v33.07c0,16.46-12.48,32.89-37.48,45.41s-57.89,18.72-90.78,18.72-65.85-6.24-90.81-18.72-37.45-29-37.45-45.41V510.25c0-16.46,12.48-32.92,37.45-45.4s57.89-18.73,90.81-18.73,65.81,6.25,90.78,18.73S641,493.79,641,510.25Z"/><path class="cls-1" d="M641,510.25v33.07c0,16.47-12.48,32.89-37.48,45.41s-57.89,18.72-90.78,18.72-65.85-6.24-90.81-18.72-37.45-28.94-37.45-45.41V510.25c0-16.46,12.48-32.92,37.45-45.4s57.89-18.73,90.81-18.73,65.81,6.25,90.78,18.73S641,493.79,641,510.25Z"/><path class="cls-2" d="M641,510.25a34.75,34.75,0,0,1-4.31,16.54c-5.54,10.58-16.6,20.59-33.17,28.87-25,12.48-57.89,18.73-90.78,18.73s-65.85-6.25-90.81-18.73c-16.54-8.28-27.6-18.29-33.18-28.87a35.16,35.16,0,0,1-4.27-16.54c0-16.46,12.48-32.92,37.45-45.4s57.89-18.73,90.81-18.73,65.81,6.25,90.78,18.73S641,493.79,641,510.25Z"/><path class="cls-1" d="M641,510.25v33.07c0,16.47-12.48,32.89-37.48,45.41s-57.89,18.72-90.78,18.72-65.85-6.24-90.81-18.72-37.45-28.94-37.45-45.41V510.25a35.16,35.16,0,0,0,4.27,16.54c5.58,10.58,16.64,20.59,33.18,28.87,25,12.48,57.89,18.73,90.81,18.73s65.81-6.25,90.78-18.73c16.57-8.28,27.63-18.29,33.17-28.87A34.75,34.75,0,0,0,641,510.25Z"/><path class="cls-1" d="M646.27,457.78v33.07c0,16.46-12.48,32.89-37.49,45.4S550.89,555,518,555s-65.85-6.24-90.81-18.73-37.45-28.94-37.45-45.4V457.78c0-16.46,12.48-32.92,37.45-45.41s57.89-18.72,90.81-18.72,65.81,6.24,90.77,18.72S646.27,441.32,646.27,457.78Z"/><path class="cls-1" d="M646.27,457.78v33.07c0,16.46-12.48,32.89-37.49,45.41S550.89,555,518,555s-65.85-6.24-90.81-18.72-37.45-28.95-37.45-45.41V457.78c0-16.46,12.48-32.92,37.45-45.41s57.89-18.72,90.81-18.72,65.81,6.24,90.77,18.72S646.27,441.32,646.27,457.78Z"/><path class="cls-2" d="M646.27,457.78A34.74,34.74,0,0,1,642,474.31c-5.55,10.59-16.6,20.59-33.18,28.88-25,12.48-57.89,18.72-90.77,18.72s-65.85-6.24-90.81-18.72c-16.54-8.29-27.6-18.29-33.18-28.88a35.15,35.15,0,0,1-4.27-16.53c0-16.46,12.48-32.92,37.45-45.41s57.89-18.72,90.81-18.72,65.81,6.24,90.77,18.72S646.27,441.32,646.27,457.78Z"/><path class="cls-1" d="M646.27,457.78v33.07c0,16.46-12.48,32.89-37.49,45.41S550.89,555,518,555s-65.85-6.24-90.81-18.72-37.45-28.95-37.45-45.41V457.78A35.15,35.15,0,0,0,394,474.31c5.58,10.59,16.64,20.59,33.18,28.88,25,12.48,57.89,18.72,90.81,18.72s65.81-6.24,90.77-18.72c16.58-8.29,27.63-18.29,33.18-28.88A34.74,34.74,0,0,0,646.27,457.78Z"/><path class="cls-1" d="M641,405.31v33.06c0,16.47-12.48,32.89-37.48,45.41s-57.89,18.72-90.78,18.72-65.85-6.24-90.81-18.72-37.45-28.94-37.45-45.41V405.31c0-16.47,12.48-32.93,37.45-45.41s57.89-18.73,90.81-18.73,65.81,6.25,90.78,18.73S641,388.84,641,405.31Z"/><path class="cls-1" d="M641,405.31v33.06c0,16.47-12.48,32.89-37.48,45.41s-57.89,18.72-90.78,18.72-65.85-6.24-90.81-18.72-37.45-28.94-37.45-45.41V405.31c0-16.47,12.48-32.93,37.45-45.41s57.89-18.73,90.81-18.73,65.81,6.25,90.78,18.73S641,388.84,641,405.31Z"/><path class="cls-2" d="M641,405.31a34.74,34.74,0,0,1-4.31,16.53c-5.54,10.58-16.6,20.59-33.17,28.87-25,12.48-57.89,18.73-90.78,18.73s-65.85-6.25-90.81-18.73c-16.54-8.28-27.6-18.29-33.18-28.87a35.15,35.15,0,0,1-4.27-16.53c0-16.47,12.48-32.93,37.45-45.41s57.89-18.73,90.81-18.73,65.81,6.25,90.78,18.73S641,388.84,641,405.31Z"/><path class="cls-1" d="M641,405.31v33.06c0,16.47-12.48,32.89-37.48,45.41s-57.89,18.72-90.78,18.72-65.85-6.24-90.81-18.72-37.45-28.94-37.45-45.41V405.31a35.15,35.15,0,0,0,4.27,16.53c5.58,10.58,16.64,20.59,33.18,28.87,25,12.48,57.89,18.73,90.81,18.73s65.81-6.25,90.78-18.73c16.57-8.28,27.63-18.29,33.17-28.87A34.74,34.74,0,0,0,641,405.31Z"/><path class="cls-1" d="M646.27,352.83V385.9c0,16.46-12.48,32.89-37.49,45.41S550.89,450,518,450s-65.85-6.24-90.81-18.72-37.45-28.95-37.45-45.41V352.83c0-16.46,12.48-32.92,37.45-45.41S485.09,288.7,518,288.7s65.81,6.24,90.77,18.72S646.27,336.37,646.27,352.83Z"/><path class="cls-1" d="M646.27,352.83V385.9c0,16.46-12.48,32.89-37.49,45.41S550.89,450,518,450s-65.85-6.24-90.81-18.72-37.45-28.95-37.45-45.41V352.83c0-16.46,12.48-32.92,37.45-45.41S485.09,288.7,518,288.7s65.81,6.24,90.77,18.72S646.27,336.37,646.27,352.83Z"/><path class="cls-2" d="M646.27,352.83A34.78,34.78,0,0,1,642,369.37c-5.55,10.58-16.6,20.58-33.18,28.87C583.82,410.72,550.89,417,518,417s-65.85-6.24-90.81-18.72C410.66,390,399.6,380,394,369.37a35.19,35.19,0,0,1-4.27-16.54c0-16.46,12.48-32.92,37.45-45.41S485.09,288.7,518,288.7s65.81,6.24,90.77,18.72S646.27,336.37,646.27,352.83Z"/><path class="cls-1" d="M646.27,352.83V385.9c0,16.46-12.48,32.89-37.49,45.41S550.89,450,518,450s-65.85-6.24-90.81-18.72-37.45-28.95-37.45-45.41V352.83A35.19,35.19,0,0,0,394,369.37C399.6,380,410.66,390,427.2,398.24,452.16,410.72,485.09,417,518,417s65.81-6.24,90.77-18.72C625.36,390,636.41,380,642,369.37A34.78,34.78,0,0,0,646.27,352.83Z"/><path class="cls-1" d="M356.87,555.9V589c0,16.46-12.48,32.88-37.48,45.4S261.5,653.1,228.61,653.1s-65.84-6.24-90.81-18.73-37.45-28.94-37.45-45.4V555.9c0-16.46,12.48-32.93,37.45-45.41s57.89-18.72,90.81-18.72,65.81,6.24,90.78,18.72S356.87,539.44,356.87,555.9Z"/><path class="cls-1" d="M356.87,555.9V589c0,16.46-12.48,32.88-37.48,45.4S261.5,653.1,228.61,653.1s-65.84-6.24-90.81-18.73-37.45-28.94-37.45-45.4V555.9c0-16.46,12.48-32.93,37.45-45.41s57.89-18.72,90.81-18.72,65.81,6.24,90.78,18.72S356.87,539.44,356.87,555.9Z"/><path class="cls-2" d="M356.87,555.9a34.84,34.84,0,0,1-4.3,16.53C347,583,336,593,319.39,601.3c-25,12.49-57.89,18.73-90.78,18.73s-65.84-6.24-90.81-18.73C121.27,593,110.21,583,104.62,572.43a35.27,35.27,0,0,1-4.27-16.53c0-16.46,12.48-32.93,37.45-45.41s57.89-18.72,90.81-18.72,65.81,6.24,90.78,18.72S356.87,539.44,356.87,555.9Z"/><path class="cls-1" d="M356.87,555.9V589c0,16.46-12.48,32.88-37.48,45.4S261.5,653.1,228.61,653.1s-65.84-6.24-90.81-18.73-37.45-28.94-37.45-45.4V555.9a35.27,35.27,0,0,0,4.27,16.53C110.21,583,121.27,593,137.8,601.3c25,12.49,57.89,18.73,90.81,18.73s65.81-6.24,90.78-18.73C336,593,347,583,352.57,572.43A34.84,34.84,0,0,0,356.87,555.9Z"/><path class="cls-1" d="M362.12,503.42v33.07c0,16.46-12.48,32.89-37.48,45.41s-57.89,18.72-90.78,18.72S168,594.38,143.05,581.9,105.6,553,105.6,536.49V503.42c0-16.46,12.48-32.92,37.45-45.4s57.89-18.73,90.81-18.73,65.81,6.24,90.78,18.73S362.12,487,362.12,503.42Z"/><path class="cls-1" d="M362.12,503.42v33.07c0,16.46-12.48,32.89-37.48,45.41s-57.89,18.72-90.78,18.72S168,594.38,143.05,581.9,105.6,553,105.6,536.49V503.42c0-16.46,12.48-32.92,37.45-45.4s57.89-18.73,90.81-18.73,65.81,6.24,90.78,18.73S362.12,487,362.12,503.42Z"/><path class="cls-2" d="M362.12,503.42A34.75,34.75,0,0,1,357.81,520c-5.54,10.58-16.6,20.58-33.17,28.87-25,12.48-57.89,18.72-90.78,18.72s-65.85-6.24-90.81-18.72c-16.54-8.29-27.6-18.29-33.18-28.87a35.16,35.16,0,0,1-4.27-16.54c0-16.46,12.48-32.92,37.45-45.4s57.89-18.73,90.81-18.73,65.81,6.24,90.78,18.73S362.12,487,362.12,503.42Z"/><path class="cls-1" d="M362.12,503.42v33.07c0,16.46-12.48,32.89-37.48,45.41s-57.89,18.72-90.78,18.72S168,594.38,143.05,581.9,105.6,553,105.6,536.49V503.42A35.16,35.16,0,0,0,109.87,520c5.58,10.58,16.64,20.58,33.18,28.87,25,12.48,57.89,18.72,90.81,18.72s65.81-6.24,90.78-18.72c16.57-8.29,27.63-18.29,33.17-28.87A34.75,34.75,0,0,0,362.12,503.42Z"/><rect class="cls-3" width="746.62" height="746.62"/></g></g></svg>