<svg xmlns="http://www.w3.org/2000/svg" xmlns:xlink="http://www.w3.org/1999/xlink" viewBox="0 0 746.62 746.62"><defs><style>.cls-1{fill:none;}.cls-2{fill:#333;}.cls-3{fill:#1a1a1a;}.cls-4{fill:#efecec;}.cls-5{fill:url(#linear-gradient);}.cls-6{fill:#363434;}</style><linearGradient id="linear-gradient" x1="292.81" y1="589.65" x2="489.28" y2="498.07" gradientUnits="userSpaceOnUse"><stop offset="0" stop-color="#243949"/><stop offset="1" stop-color="#517fa4"/></linearGradient></defs><title>night</title><g id="Layer_2" data-name="Layer 2"><g id="Layer_2-2" data-name="Layer 2"><rect class="cls-1" width="746.62" height="746.62"/><rect class="cls-1" width="746.62" height="746.62"/><path class="cls-2" d="M696.34,309.15v18.16c0,6.93-5.26,13.86-15.75,19.11L491.25,441.08c-21,10.51-55.41,10.51-76.42,0L66.05,266.7c-10.51-5.25-15.77-12.18-15.77-19.11V229.43c0-6.93,5.26-13.85,15.77-19.11l189.32-94.66c21-10.51,55.42-10.51,76.43,0L680.59,290C691.08,295.3,696.34,302.22,696.34,309.15Z"/><path class="cls-2" d="M696.34,309.15a15.65,15.65,0,0,1-3.11,9.08c-2.59,3.66-6.8,7.1-12.65,10L491.26,422.92c-21,10.51-55.42,10.51-76.43,0L66.05,248.54c-5.84-2.93-10.06-6.36-12.66-10a15.67,15.67,0,0,1-3.11-9.08c0-6.93,5.26-13.86,15.77-19.11l189.32-94.66c21-10.51,55.42-10.51,76.43,0L680.58,290C691.08,295.3,696.34,302.22,696.34,309.15Z"/><path class="cls-3" d="M570.54,351.36c0,4.24-3.21,8.48-9.64,11.68s-14.88,4.82-23.36,4.82-16.93-1.61-23.35-4.82-9.64-7.44-9.64-11.68,3.22-8.46,9.64-11.67,14.89-4.81,23.35-4.81,16.94,1.6,23.36,4.81S570.54,347.14,570.54,351.36Z"/><path class="cls-3" d="M696.34,309.15v18.16c0,6.93-5.26,13.86-15.76,19.11L491.26,441.08c-21,10.51-55.42,10.51-76.43,0L66.05,266.7c-10.51-5.26-15.77-12.18-15.77-19.11V229.43a15.67,15.67,0,0,0,3.11,9.08c2.6,3.67,6.82,7.1,12.66,10L414.83,422.92c21,10.51,55.41,10.51,76.43,0l189.32-94.66c5.85-2.93,10.06-6.37,12.65-10A15.65,15.65,0,0,0,696.34,309.15Z"/><polygon class="cls-2" points="574.45 387.05 574.45 394.54 597.38 383.07 597.38 375.59 574.45 387.05"/><rect class="cls-1" x="64.81" y="448.96" width="617" height="189.88"/><rect class="cls-4" x="297.95" y="497.03" width="185.8" height="94.05"/><path class="cls-5" d="M366.44,536.35c-7.43,0-10.27,5.94-10.27,20.42,0,14.73,2.84,20.77,10.52,20.77,7.41,0,10.38-6,10.38-20.52S374.1,536.35,366.44,536.35Zm0,0c-7.43,0-10.27,5.94-10.27,20.42,0,14.73,2.84,20.77,10.52,20.77,7.41,0,10.38-6,10.38-20.52S374.1,536.35,366.44,536.35Zm0,0c-7.43,0-10.27,5.94-10.27,20.42,0,14.73,2.84,20.77,10.52,20.77,7.41,0,10.38-6,10.38-20.52S374.1,536.35,366.44,536.35Zm0,0c-7.43,0-10.27,5.94-10.27,20.42,0,14.73,2.84,20.77,10.52,20.77,7.41,0,10.38-6,10.38-20.52S374.1,536.35,366.44,536.35Zm0,0c-7.43,0-10.27,5.94-10.27,20.42,0,14.73,2.84,20.77,10.52,20.77,7.41,0,10.38-6,10.38-20.52S374.1,536.35,366.44,536.35Zm0,0c-7.43,0-10.27,5.94-10.27,20.42,0,14.73,2.84,20.77,10.52,20.77,7.41,0,10.38-6,10.38-20.52S374.1,536.35,366.44,536.35ZM295,494.16v99.49H486.86V494.16Zm27.49,93.66c-14.48,0-21.88-10.51-21.88-30.92,0-20.9,7.28-30.92,22.51-30.92A27.69,27.69,0,0,1,339,530.66l-3.85,8.91a19,19,0,0,0-10.62-3.22c-8.79,0-12,5.46-12,20.17s3.47,21,11.88,21a20,20,0,0,0,11.86-4.07l3.35,9A29.38,29.38,0,0,1,322.53,587.82Zm43.91,0q-22.28,0-22.26-30.8c0-20.9,7.41-31,22.51-31s22.39,10.14,22.39,30.79C389.08,577.67,381.52,587.82,366.44,587.82Zm74.46-1.24H429.14V544.53c0-6.06-2.09-8.28-6.3-8.28-3.85,0-8.18,2.72-11.13,5.69v44.64H400V527.21h9.65l.75,6.67h.11c4-3.7,9.66-7.9,17.07-7.9,8.66,0,13.37,5.18,13.37,14.95Zm40.33,0H447.32V574.82h33.91ZM366.44,536.35c-7.43,0-10.27,5.94-10.27,20.42,0,14.73,2.84,20.77,10.52,20.77,7.41,0,10.38-6,10.38-20.52S374.1,536.35,366.44,536.35Zm0,0c-7.43,0-10.27,5.94-10.27,20.42,0,14.73,2.84,20.77,10.52,20.77,7.41,0,10.38-6,10.38-20.52S374.1,536.35,366.44,536.35Zm0,0c-7.43,0-10.27,5.94-10.27,20.42,0,14.73,2.84,20.77,10.52,20.77,7.41,0,10.38-6,10.38-20.52S374.1,536.35,366.44,536.35Zm0,0c-7.43,0-10.27,5.94-10.27,20.42,0,14.73,2.84,20.77,10.52,20.77,7.41,0,10.38-6,10.38-20.52S374.1,536.35,366.44,536.35Zm0,0c-7.43,0-10.27,5.94-10.27,20.42,0,14.73,2.84,20.77,10.52,20.77,7.41,0,10.38-6,10.38-20.52S374.1,536.35,366.44,536.35Z"/><path class="cls-6" d="M112.78,500v36.86H90V500H78v86.59H90v-39.2h22.76v39.2h12V500Z"/><path class="cls-6" d="M139.35,527.21v59.37h11.76V527.21Zm5.82-22.76a7.14,7.14,0,0,0-7.54,7.55c0,4.46,3.08,7.41,7.54,7.41s7.67-2.95,7.67-7.41S149.75,504.45,145.17,504.45Z"/><path class="cls-6" d="M204.41,552.82c0-16.47-5.06-26.84-20.14-26.84C169.41,526,162,536.6,162,556.9c0,20.64,7,30.92,22,30.92,6.68,0,13.73-2,18.56-5.32l-3.22-9.29a23.71,23.71,0,0,1-13.12,4.46c-8.28,0-12-5.06-12.49-17.07h30.32Q204.4,556.52,204.41,552.82Zm-10.88-.25H173.62c.63-11.51,3.83-16.7,10.88-16.7C191.92,535.87,193.91,542.54,193.53,552.57Z"/><path class="cls-6" d="M240,526.35c-5.94,0-10.88,3.45-14.73,7.53h-.12l-.61-6.67h-9.64v59.37h11.73V543.05a16.94,16.94,0,0,1,12.39-5.82,14.71,14.71,0,0,1,5.56,1.11l2.22-10.75A18.22,18.22,0,0,0,240,526.35Z"/><path class="cls-6" d="M271.69,526a38.85,38.85,0,0,0-19.41,5.44l3.47,9.26a25.85,25.85,0,0,1,14-4.33c5.94,0,8.89,2.85,8.89,9.67v4.2H273.8c-15.33,0-24.24,7.18-24.24,20.65,0,10,5.19,16.82,14.6,16.82,6.67,0,11.74-3.1,15.46-7.66H280l.6,6.55h9.77V544.66C290.37,532.52,283.83,526,271.69,526Zm6.93,46.75c-2.95,3.45-6.8,5.44-10.51,5.44-4.58,0-7.05-3.09-7.05-8.53,0-7.3,4.33-11.26,13.12-11.26h4.44Z"/><path class="cls-6" d="M521.09,511h9L542,544.82c1.76,5,3,9.68,4,13.44h.4c-1.44-9.6-1.84-14.4-1.84-18.08V511H552v56h-9l-11.6-33a144.49,144.49,0,0,1-4.24-14.08h-.4c1.6,12.56,1.76,14.64,1.76,17.84V567h-7.36Z"/><path class="cls-6" d="M560.21,518.74a4.92,4.92,0,1,1,4.88,4.8A4.62,4.62,0,0,1,560.21,518.74Zm1.12,9.84h7.6V567h-7.6Z"/><path class="cls-6" d="M605.09,528.58V569.7c0,10.32-5,15.92-14.16,15.92a20.43,20.43,0,0,1-12.16-3.92l2.4-6a14,14,0,0,0,9,3.2c4.88,0,7.36-3,7.36-8.64v-5.92a14.81,14.81,0,0,1-9.12,3.44c-7.84,0-12.08-6.8-12.08-19.52,0-13.28,4.32-20.48,12.24-20.48a13.24,13.24,0,0,1,9.76,4.4h.08l.4-3.6ZM590.61,560.9a11.09,11.09,0,0,0,6.88-2.56v-20.8a10.24,10.24,0,0,0-7-2.88c-4.48,0-6.48,3.92-6.48,13.36C584.05,557.22,586.05,560.9,590.61,560.9Z"/><path class="cls-6" d="M640.21,537.46V567h-7.6v-27.2c0-3.92-1.36-5.36-4.08-5.36-2.56,0-5.28,1.76-7.2,3.68V567h-7.6V511h7.6v15.6a51.58,51.58,0,0,1-.24,5.84l.24.08c2.64-2.64,6-4.72,10.16-4.72C637.17,527.78,640.21,531.14,640.21,537.46Z"/><path class="cls-6" d="M668.61,565.78a17.58,17.58,0,0,1-8.16,2c-7,0-10.08-4.16-10.08-13.6V535h-4.88v-6.4h4.88v-12H658v12h9.6V535H658v17.68c0,6.32,1.12,8.48,4.4,8.48a9,9,0,0,0,4.48-1.2Z"/></g></g></svg>