<svg xmlns="http://www.w3.org/2000/svg" xmlns:xlink="http://www.w3.org/1999/xlink" viewBox="0 0 746.62 746.62"><defs><style>.cls-1{fill:none;}.cls-2{fill:#333;}.cls-3{fill:#1a1a1a;}.cls-4{fill:#009245;}.cls-5{fill:#efecec;}.cls-6{fill:url(#linear-gradient);}.cls-7{fill:#363434;}</style><linearGradient id="linear-gradient" x1="260.21" y1="589.65" x2="456.68" y2="498.07" gradientUnits="userSpaceOnUse"><stop offset="0" stop-color="#243949"/><stop offset="1" stop-color="#517fa4"/></linearGradient></defs><title>qseries</title><g id="Layer_2" data-name="Layer 2"><g id="Layer_2-2" data-name="Layer 2"><rect class="cls-1" width="746.62" height="746.62"/><path class="cls-2" d="M696.34,309.15v18.16c0,6.93-5.26,13.86-15.75,19.11L491.25,441.08c-21,10.51-55.41,10.51-76.42,0L66.05,266.7c-10.51-5.25-15.77-12.18-15.77-19.11V229.43c0-6.93,5.26-13.85,15.77-19.11l189.32-94.66c21-10.51,55.42-10.51,76.43,0L680.59,290C691.08,295.3,696.34,302.22,696.34,309.15Z"/><path class="cls-2" d="M696.34,309.15a15.65,15.65,0,0,1-3.11,9.08c-2.59,3.67-6.8,7.11-12.65,10L491.26,422.92c-21,10.51-55.42,10.51-76.43,0L66.05,248.54c-5.84-2.93-10.06-6.36-12.66-10a15.65,15.65,0,0,1-3.11-9.08c0-6.93,5.26-13.86,15.77-19.11l189.32-94.66c21-10.51,55.42-10.51,76.43,0L680.58,290C691.08,295.3,696.34,302.22,696.34,309.15Z"/><path class="cls-3" d="M570.54,351.36c0,4.24-3.21,8.48-9.64,11.69s-14.88,4.81-23.36,4.81-16.93-1.6-23.35-4.81-9.64-7.45-9.64-11.69,3.22-8.46,9.64-11.67,14.89-4.81,23.35-4.81,16.94,1.6,23.36,4.81S570.54,347.14,570.54,351.36Z"/><path class="cls-4" d="M696.34,309.15v18.16c0,6.93-5.26,13.86-15.76,19.11L491.26,441.08c-21,10.51-55.42,10.51-76.43,0L66.05,266.7c-10.51-5.26-15.77-12.18-15.77-19.11V229.43a15.65,15.65,0,0,0,3.11,9.08c2.6,3.67,6.82,7.1,12.66,10L414.83,422.92c21,10.51,55.41,10.51,76.43,0l189.32-94.66c5.85-2.92,10.06-6.36,12.65-10A15.65,15.65,0,0,0,696.34,309.15Z"/><polygon class="cls-2" points="574.45 387.05 574.45 394.54 597.38 383.07 597.38 375.59 574.45 387.05"/><rect class="cls-1" x="64.81" y="448.96" width="617" height="189.88"/><rect class="cls-5" x="265.35" y="497.03" width="185.8" height="94.05"/><path class="cls-6" d="M333.84,536.35c-7.43,0-10.27,5.94-10.27,20.42,0,14.73,2.84,20.77,10.52,20.77,7.41,0,10.38-6,10.38-20.52S341.5,536.35,333.84,536.35Zm0,0c-7.43,0-10.27,5.94-10.27,20.42,0,14.73,2.84,20.77,10.52,20.77,7.41,0,10.38-6,10.38-20.52S341.5,536.35,333.84,536.35Zm0,0c-7.43,0-10.27,5.94-10.27,20.42,0,14.73,2.84,20.77,10.52,20.77,7.41,0,10.38-6,10.38-20.52S341.5,536.35,333.84,536.35Zm0,0c-7.43,0-10.27,5.94-10.27,20.42,0,14.73,2.84,20.77,10.52,20.77,7.41,0,10.38-6,10.38-20.52S341.5,536.35,333.84,536.35Zm0,0c-7.43,0-10.27,5.94-10.27,20.42,0,14.73,2.84,20.77,10.52,20.77,7.41,0,10.38-6,10.38-20.52S341.5,536.35,333.84,536.35Zm0,0c-7.43,0-10.27,5.94-10.27,20.42,0,14.73,2.84,20.77,10.52,20.77,7.41,0,10.38-6,10.38-20.52S341.5,536.35,333.84,536.35Zm-71.4-42.2v99.5H454.26v-99.5Zm27.49,93.66c-14.48,0-21.88-10.5-21.88-30.92,0-20.89,7.28-30.92,22.51-30.92a27.7,27.7,0,0,1,15.83,4.69l-3.85,8.91a19,19,0,0,0-10.62-3.22c-8.79,0-12,5.46-12,20.17s3.47,21,11.88,21a19.94,19.94,0,0,0,11.86-4.08l3.35,9A29.37,29.37,0,0,1,289.93,587.81Zm43.91,0q-22.27,0-22.26-30.79c0-20.9,7.41-31,22.51-31s22.39,10.15,22.39,30.8C356.48,577.67,348.92,587.81,333.84,587.81Zm74.46-1.23H396.54V544.53c0-6.07-2.09-8.28-6.3-8.28-3.85,0-8.18,2.72-11.13,5.69v44.64H367.35V527.21H377l.75,6.67h.11c4-3.7,9.66-7.91,17.07-7.91,8.66,0,13.37,5.19,13.37,15Zm40.33,0H414.72V574.82h33.91ZM333.84,536.35c-7.43,0-10.27,5.94-10.27,20.42,0,14.73,2.84,20.77,10.52,20.77,7.41,0,10.38-6,10.38-20.52S341.5,536.35,333.84,536.35Zm0,0c-7.43,0-10.27,5.94-10.27,20.42,0,14.73,2.84,20.77,10.52,20.77,7.41,0,10.38-6,10.38-20.52S341.5,536.35,333.84,536.35Zm0,0c-7.43,0-10.27,5.94-10.27,20.42,0,14.73,2.84,20.77,10.52,20.77,7.41,0,10.38-6,10.38-20.52S341.5,536.35,333.84,536.35Zm0,0c-7.43,0-10.27,5.94-10.27,20.42,0,14.73,2.84,20.77,10.52,20.77,7.41,0,10.38-6,10.38-20.52S341.5,536.35,333.84,536.35Zm0,0c-7.43,0-10.27,5.94-10.27,20.42,0,14.73,2.84,20.77,10.52,20.77,7.41,0,10.38-6,10.38-20.52S341.5,536.35,333.84,536.35Z"/><path class="cls-7" d="M80.18,500v36.86H57.42V500h-12v86.59h12v-39.2H80.18v39.2h12V500Z"/><path class="cls-7" d="M106.75,527.21v59.37h11.76V527.21Zm5.82-22.76A7.14,7.14,0,0,0,105,512c0,4.46,3.08,7.41,7.54,7.41s7.67-2.95,7.67-7.41S117.15,504.45,112.57,504.45Z"/><path class="cls-7" d="M171.81,552.82c0-16.47-5.06-26.85-20.14-26.85-14.86,0-22.28,10.63-22.28,30.92,0,20.65,7.05,30.92,22,30.92,6.68,0,13.73-2,18.56-5.31l-3.22-9.29a23.71,23.71,0,0,1-13.12,4.46c-8.28,0-12-5.06-12.49-17.07h30.32C171.69,557.88,171.81,555.28,171.81,552.82Zm-10.88-.26H141c.62-11.5,3.83-16.69,10.88-16.69C159.32,535.87,161.31,542.54,160.93,552.56Z"/><path class="cls-7" d="M207.44,526.35c-5.94,0-10.88,3.45-14.73,7.53h-.12l-.61-6.67h-9.65v59.37h11.74V543.05a16.94,16.94,0,0,1,12.39-5.82,14.71,14.71,0,0,1,5.56,1.11l2.22-10.75A18.22,18.22,0,0,0,207.44,526.35Z"/><path class="cls-7" d="M239.09,526a39,39,0,0,0-19.41,5.44l3.47,9.27a25.85,25.85,0,0,1,14-4.33c5.94,0,8.89,2.85,8.89,9.67v4.2H241.2c-15.33,0-24.24,7.18-24.24,20.65,0,10,5.19,16.82,14.6,16.82,6.67,0,11.74-3.1,15.46-7.66h.38l.6,6.55h9.77V544.66C257.77,532.52,251.23,526,239.09,526ZM246,572.73c-3,3.45-6.8,5.44-10.51,5.44-4.58,0-7-3.1-7-8.53,0-7.31,4.33-11.26,13.12-11.26H246Z"/><path class="cls-7" d="M522.49,569.86l-2.88,6.08c-4.72-1.28-9.6-4.48-13.44-8.4a22.13,22.13,0,0,1-3.36.24c-11.52,0-16-7.84-16-28.72s4.64-28.88,16.16-28.88,16,7.92,16,28.72c0,13.36-1.92,21.52-6.32,25.6A27,27,0,0,0,522.49,569.86Zm-19.52-9c6.08,0,8-5.2,8-21.76s-2-21.92-8.16-21.92-8,5.2-8,21.76S496.81,560.82,503,560.82Z"/><path class="cls-7" d="M537.05,563.38l2.24-6.72c3.52,2.64,7.6,4.24,11,4.24,5,0,7.92-3.52,7.92-9.12,0-5-2-7.84-8.88-12-7.76-4.72-10.8-9.36-10.8-16.24,0-8.16,5.52-13.36,14-13.36a25.36,25.36,0,0,1,12.8,3.92l-2.8,6.16a17.24,17.24,0,0,0-9.36-3.28c-4.24,0-6.72,2.4-6.72,6.56,0,4,1.84,6.32,7.92,10.16,8.16,5,11.84,10.24,11.84,17.28,0,10.32-6,16.8-15.6,16.8A24.34,24.34,0,0,1,537.05,563.38Z"/><path class="cls-7" d="M598.49,545.14q0,2.4-.24,5h-19.6c.32,7.76,2.72,11,8.08,11a15.43,15.43,0,0,0,8.48-2.88l2.08,6a22,22,0,0,1-12,3.44c-9.68,0-14.24-6.64-14.24-20,0-13.12,4.8-20,14.4-20C595.21,527.78,598.49,534.5,598.49,545.14ZM578.57,545h12.88c.24-6.48-1-10.8-5.84-10.8C581.05,534.18,579,537.54,578.57,545Z"/><path class="cls-7" d="M625.93,528.82l-1.44,7a9.33,9.33,0,0,0-3.6-.72,11,11,0,0,0-8,3.76V567h-7.6v-38.4h6.24l.4,4.32H612c2.48-2.64,5.68-4.88,9.52-4.88A12,12,0,0,1,625.93,528.82Z"/><path class="cls-7" d="M629.61,518.74a4.92,4.92,0,1,1,4.88,4.8A4.62,4.62,0,0,1,629.61,518.74Zm1.12,9.84h7.6V567h-7.6Z"/><path class="cls-7" d="M672.81,545.14q0,2.4-.24,5H653c.32,7.76,2.72,11,8.08,11a15.43,15.43,0,0,0,8.48-2.88l2.08,6a22,22,0,0,1-12,3.44c-9.68,0-14.24-6.64-14.24-20,0-13.12,4.8-20,14.4-20C669.53,527.78,672.81,534.5,672.81,545.14ZM652.89,545h12.88c.24-6.48-1-10.8-5.84-10.8C655.37,534.18,653.29,537.54,652.89,545Z"/><path class="cls-7" d="M676.73,564l2.4-5.92a16.4,16.4,0,0,0,9,3.12c3.28,0,5.52-1.84,5.52-5,0-3.68-3.12-5.28-6.56-6.88-4.32-2.08-9.28-4.48-9.28-11.52,0-5.92,3.68-10.08,11.28-10.08a20.77,20.77,0,0,1,10.88,3l-2.4,5.68a15.59,15.59,0,0,0-7.52-2.16c-3,0-4.56,1.36-4.56,3.68,0,3,2.8,4.4,6.08,6,4.4,2.16,9.68,4.8,9.68,12.24,0,7.2-4.88,11.52-12.8,11.52A19.38,19.38,0,0,1,676.73,564Z"/></g></g></svg>