<svg xmlns="http://www.w3.org/2000/svg" viewBox="0 0 746.62 746.62"><defs><style>.cls-1{fill:#f15a24;}.cls-2{fill:#f7931e;}.cls-3{fill:#c1272d;}.cls-4{fill:#fbb03b;}.cls-5{fill:#333;}.cls-6{fill:#1a1a1a;}.cls-7{fill:none;}</style></defs><title>Asset 5</title><g id="Layer_2" data-name="Layer 2"><g id="Layer_2-2" data-name="Layer 2"><path class="cls-1" d="M345.73,509.35l40.16,61.09L175.74,464.63c-1.58.23-3.16.43-4.75.61a239.28,239.28,0,0,1-27.79,1.6c-31,0-62.08-5.89-85.64-17.66s-35.32-27.3-35.32-42.82v-6.53c0-15.52,11.77-31.05,35.32-42.82s54.6-17.66,85.64-17.66,62.1,5.88,85.65,17.66,35.32,27.3,35.32,42.82v6.53a34.54,34.54,0,0,1-6.06,19l209,104.47Z"/><path class="cls-2" d="M264.17,399.83v6.52c0,7.21-2.54,14.42-7.61,21.25-5.86,7.88-15.1,15.27-27.71,21.57-16.47,8.23-36.62,13.59-57.87,16.07a241.34,241.34,0,0,1-27.78,1.59c-31,0-62.09-5.89-85.64-17.66s-35.32-27.29-35.32-42.82v-6.52a32.51,32.51,0,0,0,.17,3.26c1.53,14.42,13.25,28.6,35.15,39.56,23.55,11.77,54.6,17.66,85.64,17.66,5.63,0,11.26-.2,16.85-.58,25.21-1.75,49.51-7.45,68.8-17.08,10.12-5.07,18.07-10.83,23.85-17,6.71-7.15,10.47-14.83,11.3-22.58A32.51,32.51,0,0,0,264.17,399.83Z"/><path class="cls-3" d="M345.72,509.35l40.16,61.09L171,462.24c21.25-2.48,41.4-7.84,57.87-16.07,12.61-6.3,21.85-13.69,27.71-21.57l210.5,105.25Z"/><path class="cls-4" d="M264.17,399.83a32.51,32.51,0,0,1-.17,3.26c-.83,7.75-4.59,15.43-11.3,22.58-5.78,6.15-13.73,11.91-23.85,17-19.29,9.63-43.59,15.33-68.8,17.08-5.59.38-11.22.58-16.85.58-31,0-62.09-5.89-85.64-17.66-21.9-11-33.62-25.14-35.15-39.56a32.51,32.51,0,0,1-.17-3.26C22.24,384.3,34,368.78,57.56,357s54.6-17.66,85.64-17.66,62.1,5.88,85.65,17.66S264.17,384.3,264.17,399.83Z"/><path class="cls-5" d="M724.38,352.57v15.91c0,6.07-4.61,12.14-13.8,16.74L544.74,468.13c-18.41,9.21-48.54,9.21-66.94,0L172.29,315.39c-9.2-4.6-13.81-10.67-13.81-16.74V282.74c0-6.07,4.61-12.13,13.81-16.74l165.83-82.91c18.42-9.21,48.55-9.21,66.95,0L710.58,335.83C719.77,340.44,724.38,346.5,724.38,352.57Z"/><path class="cls-5" d="M724.38,352.57a13.7,13.7,0,0,1-2.72,7.95c-2.27,3.21-6,6.23-11.08,8.79L544.75,452.22c-18.42,9.21-48.55,9.21-66.95,0L172.3,299.48c-5.12-2.56-8.82-5.57-11.09-8.79a13.64,13.64,0,0,1-2.73-7.95c0-6.07,4.61-12.13,13.82-16.74l165.83-82.91c18.41-9.21,48.54-9.21,66.95,0l305.5,152.74C719.78,340.44,724.38,346.5,724.38,352.57Z"/><path class="cls-6" d="M614.19,389.55c0,3.71-2.81,7.42-8.45,10.23s-13,4.22-20.45,4.22-14.84-1.41-20.46-4.22-8.44-6.52-8.44-10.23,2.82-7.42,8.44-10.23,13-4.21,20.46-4.21,14.83,1.4,20.45,4.21S614.19,385.85,614.19,389.55Z"/><path class="cls-6" d="M724.38,352.57v15.91c0,6.07-4.6,12.13-13.8,16.74L544.75,468.13c-18.42,9.21-48.55,9.21-66.95,0L172.3,315.39c-9.21-4.61-13.82-10.67-13.82-16.74V282.74a13.64,13.64,0,0,0,2.73,7.95c2.27,3.22,6,6.23,11.09,8.79L477.8,452.22c18.4,9.21,48.53,9.21,66.95,0l165.83-82.91c5.12-2.56,8.81-5.58,11.08-8.79A13.7,13.7,0,0,0,724.38,352.57Z"/><polygon class="cls-5" points="617.62 420.81 617.62 427.37 637.71 417.32 637.71 410.77 617.62 420.81"/><rect class="cls-7" width="746.62" height="746.62"/></g></g></svg>