<svg xmlns="http://www.w3.org/2000/svg" xmlns:xlink="http://www.w3.org/1999/xlink" viewBox="0 0 746.62 746.62"><defs><style>.cls-1{fill:none;}.cls-2{fill:#333;}.cls-3{fill:#1a1a1a;}.cls-4{fill:#b3b3b3;}.cls-5{fill:#efecec;}.cls-6{fill:url(#linear-gradient);}.cls-7{fill:#363434;}</style><linearGradient id="linear-gradient" x1="301.13" y1="589.65" x2="497.59" y2="498.07" gradientUnits="userSpaceOnUse"><stop offset="0" stop-color="#243949"/><stop offset="1" stop-color="#517fa4"/></linearGradient></defs><title>titan</title><g id="Layer_2" data-name="Layer 2"><g id="Layer_2-2" data-name="Layer 2"><rect class="cls-1" width="746.62" height="746.62"/><path class="cls-2" d="M696.34,309.15v18.16c0,6.93-5.26,13.86-15.75,19.11L491.25,441.08c-21,10.51-55.41,10.51-76.42,0L66.05,266.7c-10.51-5.25-15.77-12.18-15.77-19.11V229.43c0-6.93,5.26-13.85,15.77-19.11l189.32-94.66c21-10.51,55.42-10.51,76.43,0L680.59,290C691.08,295.3,696.34,302.22,696.34,309.15Z"/><path class="cls-2" d="M696.34,309.15a15.65,15.65,0,0,1-3.11,9.08c-2.59,3.66-6.8,7.1-12.65,10L491.26,422.92c-21,10.51-55.42,10.51-76.43,0L66.05,248.54c-5.84-2.93-10.06-6.36-12.66-10a15.67,15.67,0,0,1-3.11-9.08c0-6.93,5.26-13.86,15.77-19.11l189.32-94.66c21-10.51,55.42-10.51,76.43,0L680.58,290C691.08,295.3,696.34,302.22,696.34,309.15Z"/><path class="cls-3" d="M570.54,351.36c0,4.24-3.21,8.48-9.64,11.68s-14.88,4.82-23.36,4.82-16.93-1.61-23.35-4.82-9.64-7.44-9.64-11.68,3.22-8.46,9.64-11.67,14.89-4.81,23.35-4.81,16.94,1.6,23.36,4.81S570.54,347.14,570.54,351.36Z"/><path class="cls-4" d="M696.34,309.15v18.16c0,6.93-5.26,13.86-15.76,19.11L491.26,441.08c-21,10.51-55.42,10.51-76.43,0L66.05,266.7c-10.51-5.26-15.77-12.18-15.77-19.11V229.43a15.67,15.67,0,0,0,3.11,9.08c2.6,3.67,6.82,7.1,12.66,10L414.83,422.92c21,10.51,55.41,10.51,76.43,0l189.32-94.66c5.85-2.93,10.06-6.37,12.65-10A15.65,15.65,0,0,0,696.34,309.15Z"/><polygon class="cls-2" points="574.45 387.05 574.45 394.54 597.38 383.07 597.38 375.59 574.45 387.05"/><rect class="cls-1" x="64.81" y="448.96" width="617" height="189.88"/><rect class="cls-5" x="306.27" y="497.03" width="185.8" height="94.05"/><path class="cls-6" d="M374.76,536.35c-7.43,0-10.27,5.94-10.27,20.42,0,14.73,2.84,20.77,10.52,20.77,7.41,0,10.38-6,10.38-20.52S382.42,536.35,374.76,536.35Zm0,0c-7.43,0-10.27,5.94-10.27,20.42,0,14.73,2.84,20.77,10.52,20.77,7.41,0,10.38-6,10.38-20.52S382.42,536.35,374.76,536.35Zm0,0c-7.43,0-10.27,5.94-10.27,20.42,0,14.73,2.84,20.77,10.52,20.77,7.41,0,10.38-6,10.38-20.52S382.42,536.35,374.76,536.35Zm0,0c-7.43,0-10.27,5.94-10.27,20.42,0,14.73,2.84,20.77,10.52,20.77,7.41,0,10.38-6,10.38-20.52S382.42,536.35,374.76,536.35Zm0,0c-7.43,0-10.27,5.94-10.27,20.42,0,14.73,2.84,20.77,10.52,20.77,7.41,0,10.38-6,10.38-20.52S382.42,536.35,374.76,536.35Zm0,0c-7.43,0-10.27,5.94-10.27,20.42,0,14.73,2.84,20.77,10.52,20.77,7.41,0,10.38-6,10.38-20.52S382.42,536.35,374.76,536.35Zm-71.4-42.19v99.49H495.18V494.16Zm27.49,93.66c-14.48,0-21.88-10.51-21.88-30.92C309,536,316.25,526,331.48,526a27.69,27.69,0,0,1,15.83,4.68l-3.85,8.91a19,19,0,0,0-10.62-3.22c-8.79,0-12,5.46-12,20.17s3.47,21,11.88,21a20,20,0,0,0,11.86-4.07l3.35,9A29.38,29.38,0,0,1,330.85,587.82Zm43.91,0q-22.27,0-22.26-30.8c0-20.9,7.41-31,22.51-31s22.39,10.14,22.39,30.79C397.4,577.67,389.84,587.82,374.76,587.82Zm74.45-1.24H437.46V544.53c0-6.06-2.09-8.28-6.3-8.28-3.85,0-8.18,2.72-11.13,5.69v44.64H408.27V527.21h9.65l.75,6.67h.11c4-3.7,9.66-7.9,17.07-7.9,8.66,0,13.36,5.18,13.36,14.95Zm40.34,0H455.64V574.82h33.91ZM374.76,536.35c-7.43,0-10.27,5.94-10.27,20.42,0,14.73,2.84,20.77,10.52,20.77,7.41,0,10.38-6,10.38-20.52S382.42,536.35,374.76,536.35Zm0,0c-7.43,0-10.27,5.94-10.27,20.42,0,14.73,2.84,20.77,10.52,20.77,7.41,0,10.38-6,10.38-20.52S382.42,536.35,374.76,536.35Zm0,0c-7.43,0-10.27,5.94-10.27,20.42,0,14.73,2.84,20.77,10.52,20.77,7.41,0,10.38-6,10.38-20.52S382.42,536.35,374.76,536.35Zm0,0c-7.43,0-10.27,5.94-10.27,20.42,0,14.73,2.84,20.77,10.52,20.77,7.41,0,10.38-6,10.38-20.52S382.42,536.35,374.76,536.35Zm0,0c-7.43,0-10.27,5.94-10.27,20.42,0,14.73,2.84,20.77,10.52,20.77,7.41,0,10.38-6,10.38-20.52S382.42,536.35,374.76,536.35Z"/><path class="cls-7" d="M121.1,500v36.86H98.34V500h-12v86.59h12v-39.2H121.1v39.2h12V500Z"/><path class="cls-7" d="M147.67,527.21v59.37h11.76V527.21Zm5.82-22.76A7.14,7.14,0,0,0,146,512c0,4.46,3.08,7.41,7.54,7.41s7.67-2.95,7.67-7.41S158.07,504.45,153.49,504.45Z"/><path class="cls-7" d="M212.73,552.82c0-16.47-5.06-26.84-20.14-26.84-14.86,0-22.28,10.62-22.28,30.92,0,20.64,7.05,30.92,22,30.92,6.68,0,13.73-2,18.56-5.32l-3.22-9.29a23.74,23.74,0,0,1-13.12,4.46c-8.28,0-12-5.06-12.49-17.07h30.32Q212.73,556.52,212.73,552.82Zm-10.88-.25H181.94c.62-11.51,3.83-16.7,10.88-16.7C200.24,535.87,202.23,542.54,201.85,552.57Z"/><path class="cls-7" d="M248.36,526.35c-5.94,0-10.88,3.45-14.73,7.53h-.12l-.61-6.67h-9.65v59.37H235V543.05a16.94,16.94,0,0,1,12.39-5.82,14.71,14.71,0,0,1,5.56,1.11l2.22-10.75A18.22,18.22,0,0,0,248.36,526.35Z"/><path class="cls-7" d="M280,526a38.85,38.85,0,0,0-19.41,5.44l3.47,9.26a25.81,25.81,0,0,1,14-4.33c5.95,0,8.9,2.85,8.9,9.67v4.2h-4.82c-15.33,0-24.24,7.18-24.24,20.65,0,10,5.19,16.82,14.6,16.82,6.67,0,11.74-3.1,15.46-7.66h.38l.6,6.55h9.77V544.66C298.69,532.52,292.15,526,280,526Zm6.93,46.75c-2.95,3.45-6.8,5.44-10.51,5.44-4.58,0-7.05-3.09-7.05-8.53,0-7.3,4.33-11.26,13.12-11.26h4.44Z"/><path class="cls-7" d="M556.05,517.78H544.77V567h-7.84v-49.2H525.65V511h30.4Z"/><path class="cls-7" d="M559,518.74a4.92,4.92,0,1,1,4.88,4.8A4.62,4.62,0,0,1,559,518.74Zm1.12,9.84h7.6V567h-7.6Z"/><path class="cls-7" d="M596.29,565.78a17.58,17.58,0,0,1-8.16,2c-7,0-10.08-4.16-10.08-13.6V535h-4.88v-6.4h4.88v-12h7.6v12h9.6V535h-9.6v17.68c0,6.32,1.12,8.48,4.4,8.48a9,9,0,0,0,4.48-1.2Z"/><path class="cls-7" d="M625.65,539.86V567h-6.32l-.4-4.24h-.24a12.5,12.5,0,0,1-10,5c-6.08,0-9.44-4.4-9.44-10.88,0-8.72,5.76-13.36,15.68-13.36h3.12v-2.72c0-4.4-1.92-6.24-5.76-6.24a16.72,16.72,0,0,0-9,2.8l-2.24-6a25.25,25.25,0,0,1,12.56-3.52C621.41,527.78,625.65,532,625.65,539.86ZM618.05,558v-9.28h-2.88c-5.68,0-8.48,2.56-8.48,7.28,0,3.52,1.6,5.52,4.56,5.52A9.23,9.23,0,0,0,618.05,558Z"/><path class="cls-7" d="M633.81,528.58h6.24l.48,4.32h.08c2.56-2.4,6.24-5.12,11-5.12,5.6,0,8.64,3.36,8.64,9.68V567h-7.6v-27.2c0-3.92-1.36-5.36-4.08-5.36-2.48,0-5.28,1.76-7.2,3.68V567h-7.6Z"/></g></g></svg>